<svg width="207" height="182" viewBox="0 0 207 182" fill="none" xmlns="http://www.w3.org/2000/svg">
<path d="M103.062 16.3073L62.8643 2.17188V89.3594L103.062 76.401V16.3073Z" fill="#040606"/>
<path d="M102.099 16.2656L143.838 2.125V89.3177L102.099 76.3594V16.2656Z" fill="white"/>
<path d="M52.4375 104.625L102.104 88.1304V16.2554L52.4375 32.7502V104.63" fill="white"/>
<path d="M124.729 105.713L131.765 117.25L135.484 106.531L124.734 105.713M69.3226 41.0312C69.0622 40.7708 69.6663 43.1406 70.5101 43.9895C72.0101 45.4947 73.182 45.6926 73.807 45.7135C75.182 45.7708 76.8851 45.3749 77.8955 44.9531C78.8747 44.5364 80.5882 43.6666 81.2393 42.3906C81.3747 42.1197 81.7549 41.6614 81.5205 40.5364C81.3382 39.6666 80.7861 39.3645 80.1091 39.4114C79.432 39.4583 77.3903 39.9999 76.3955 40.3072L72.4736 41.4166C71.5882 41.6041 69.6351 41.3229 69.3226 41.0312ZM94.3747 69.3333C93.9841 69.1874 85.8851 65.8489 84.7393 65.302C83.8018 64.8489 81.4945 63.8801 80.4111 63.4374C83.4632 58.7499 85.3903 55.2083 85.6507 54.6718L89.4268 46.9999C89.5049 46.6041 89.5934 45.1562 89.5205 44.8072C89.4528 44.4583 88.2653 45.1354 86.6611 45.677C85.0465 46.2187 81.9893 48.2031 80.807 48.4479C79.6195 48.6979 75.8278 50.1301 73.8903 50.7708C71.9528 51.4114 68.2809 52.526 66.7705 52.9322C65.2601 53.3385 63.9372 53.3749 63.0934 53.6301C62.2497 53.8854 63.208 54.8072 63.432 55.1614C63.6507 55.5156 64.4528 56.3854 65.3799 56.6249C66.3122 56.8697 67.8538 56.7708 68.5518 56.6145C69.2601 56.4479 70.4684 55.8593 70.6299 55.5989C70.7965 55.3385 70.5465 54.5312 70.8174 54.2864C71.0986 54.0416 74.7913 53.1822 76.1872 52.7604C77.583 52.3333 82.9268 50.5051 83.6507 50.5937C83.4216 51.3541 79.1247 59.8333 77.7393 62.3645C76.359 64.8906 68.3174 76.0208 66.609 77.9791C65.307 79.4739 62.1611 83.2864 61.0674 84.1458C61.3434 84.2239 63.2965 84.0572 63.6507 83.8385C65.8643 82.4791 69.5465 77.9062 70.734 76.5156C74.2653 72.3906 77.3695 68.0572 79.8226 64.3437C80.3018 64.5416 84.1768 67.6822 85.1872 68.3801C86.1924 69.0781 90.182 71.2968 91.0466 71.6614C91.9111 72.0364 95.2288 73.5572 95.3747 73.0416C95.5153 72.526 94.7705 69.4791 94.3851 69.3333" fill="#040606"/>
<mask id="mask0_191_10465" style="mask-type:luminance" maskUnits="userSpaceOnUse" x="51" y="15" width="80" height="106">
<path d="M51.125 15H130.333V120.885H51.125V15Z" fill="white"/>
</mask>
<g mask="url(#mask0_191_10465)">
<path fill-rule="evenodd" clip-rule="evenodd" d="M75.6719 111.349C76.4479 111.823 77.1823 112.208 78 112.594C79.6354 113.412 81.4896 114.271 83.2552 114.917C85.625 115.802 88.0365 116.531 90.5 117.104C91.8333 117.406 93.3021 117.667 94.724 117.88C94.849 117.88 98.6875 118.354 99.4635 118.354H103.344C104.849 118.224 106.271 118.136 107.781 117.922C108.99 117.75 110.323 117.537 111.62 117.235C112.568 117.021 113.557 116.807 114.505 116.505C115.411 116.245 116.443 115.901 117.438 115.563C118.083 115.344 118.771 115.047 119.464 114.787C120.089 114.5 120.719 114.229 121.359 113.969C122.135 113.625 123.042 113.156 123.901 112.724C124.589 112.38 125.365 111.953 126.099 111.521C126.661 111.224 127.953 110.235 128.641 110.235C129.417 110.235 129.938 110.922 129.938 111.521C129.938 112.766 128.255 113.156 127.479 113.714C126.661 114.276 125.667 114.698 124.807 115.172C123.083 116.073 121.318 116.849 119.635 117.495C117.438 118.307 115.026 119.089 112.87 119.604C112.052 119.771 111.229 119.99 110.411 120.12C109.979 120.203 105.5 120.891 104.25 120.891H98.5573C97.0469 120.761 95.4531 120.589 93.9479 120.375C92.6094 120.162 91.1875 119.901 89.849 119.604C88.8177 119.386 87.6979 119.089 86.6979 118.787C84.974 118.313 83.2917 117.708 81.6563 117.068C78.6823 115.953 75.5781 114.49 72.651 112.557C72.1302 112.214 72.0833 111.87 72.0833 111.479C72.0833 110.839 72.5573 110.235 73.3333 110.235C74.026 110.235 75.401 111.224 75.6615 111.354M103.38 16.0939V88.245C103.333 88.4845 103.229 88.7033 103.078 88.8908C102.99 89.021 102.818 89.1929 102.688 89.2345C101.609 89.6616 53.0833 105.901 52.4323 105.901C51.9167 105.901 51.4427 105.557 51.1823 104.995C51.1823 104.953 51.1406 104.912 51.1406 104.823V32.6304C51.2292 32.4168 51.2708 32.1147 51.4427 31.9429C51.7865 31.4689 52.3906 31.3804 52.776 31.2554C53.5104 30.995 101.307 15.021 102 15.021C102.427 15.021 103.375 15.3231 103.375 16.0991L103.38 16.0939ZM100.745 87.172L53.776 102.766V33.7033L100.755 18.1147V87.1772" fill="#040606"/>
</g>
<mask id="mask1_191_10465" style="mask-type:luminance" maskUnits="userSpaceOnUse" x="99" y="0" width="48" height="91">
<path d="M99.667 0.885254H146.334V90.9998H99.667V0.885254Z" fill="white"/>
</mask>
<g mask="url(#mask1_191_10465)">
<path fill-rule="evenodd" clip-rule="evenodd" d="M145.152 2.25488V89.1455C145.105 90.1299 144.417 90.5622 143.771 90.5622C143.209 90.5622 139.157 89.1872 138.469 88.9684L122.178 83.9424L118.558 82.7809C117.49 82.4736 116.422 82.1455 115.37 81.7966L101.448 77.4163C101.277 77.3695 100.844 76.7705 100.844 76.6403V15.958C100.928 15.7445 101.016 15.484 101.23 15.3122C101.579 14.9268 116.36 10.0309 122.178 8.09863C123.73 7.53613 143.167 0.879883 143.771 0.879883C144.547 0.879883 145.152 1.43717 145.152 2.25488ZM142.516 87.5101L103.422 75.4007V17.1976L142.516 3.97884V87.5153" fill="#040606"/>
</g>
<mask id="mask2_191_10465" style="mask-type:luminance" maskUnits="userSpaceOnUse" x="102" y="16" width="54" height="91">
<path d="M102.333 16.3335H155.125V107H102.333V16.3335Z" fill="white"/>
</mask>
<g mask="url(#mask2_191_10465)">
<path d="M155.067 105.714L102.849 89.1252L103.067 16.9116L155.073 33.4116V105.719" fill="#040606"/>
</g>
<path fill-rule="evenodd" clip-rule="evenodd" d="M125.666 37.5259L132.396 39.5571L144.651 83.5832L137.739 81.4946L135.26 72.4582L120.974 68.1405L117.906 75.505L110.989 73.4165L125.666 37.5259ZM128.739 49.1821L123.614 61.5311L133.041 64.3748L128.739 49.1821Z" fill="white"/>
<path d="M23.3561 175.811H5.80925V143.863H0.423828V181.197H23.3561V175.811Z" fill="#040606"/>
<path d="M53.8034 165.519C53.2148 156.452 46.1784 151.92 39.0326 151.92C31.4076 151.92 24.043 156.879 24.043 166.795C24.043 176.717 31.5117 181.728 38.9232 181.728C44.8451 181.728 50.7617 178.582 52.9492 172.29H47.5638C45.8555 175.545 42.5534 177.092 38.9805 177.092C34.6576 177.092 29.2721 173.676 29.2721 168.025H53.6992C53.8034 167.545 53.8555 167.009 53.8555 166.426C53.8555 166.103 53.8555 165.837 53.8034 165.519ZM48.3086 163.702H29.4857C30.5534 158.587 34.819 156.504 39.0326 156.504C43.1888 156.504 47.2982 158.53 48.3086 163.702Z" fill="#040606"/>
<path d="M88.5174 181.197V152.348H83.2935L83.3455 156.186C80.7883 152.717 76.4653 151.863 72.8924 151.863C63.1372 151.863 57.481 158.853 57.481 166.639C57.481 174.582 62.9237 181.676 73.0018 181.676C76.5747 181.624 81.2153 180.452 83.2935 177.306V181.197H88.5174ZM83.2935 166.743C83.2935 173.676 77.6945 177.035 72.8924 177.035C66.4966 177.035 62.7101 172.077 62.7101 166.639C62.7101 160.931 66.5487 156.452 72.8924 156.452C77.7987 156.452 83.2935 159.863 83.2935 166.743Z" fill="#040606"/>
<path d="M99.0234 155.92V152.399H93.8516V181.196H99.0234V165.571C99.0234 160.29 103.076 156.399 107.93 156.399C108.784 156.399 109.69 156.504 110.596 156.769V152.186C109.424 151.92 108.305 151.759 107.185 151.759C103.982 151.759 101.107 153.04 99.0234 155.92Z" fill="#040606"/>
<path d="M119.34 155.92V152.347H114.116V181.196H119.34V165.519C119.34 160.504 122.33 156.556 127.819 156.556C134.116 156.556 135.554 160.29 135.554 165.733V181.196H140.726V165.676C140.726 157.41 136.996 151.92 128.194 151.92C124.569 151.92 121.476 152.827 119.34 155.92Z" fill="#040606"/>
<path d="M174.857 165.519C174.269 156.452 167.232 151.92 160.086 151.92C152.461 151.92 145.097 156.879 145.097 166.795C145.097 176.717 152.565 181.728 159.977 181.728C165.899 181.728 171.815 178.582 174.003 172.29H168.618C166.909 175.545 163.607 177.092 160.034 177.092C155.711 177.092 150.326 173.676 150.326 168.025H174.753C174.857 167.545 174.909 167.009 174.909 166.426C174.909 166.103 174.909 165.837 174.857 165.519ZM169.362 163.702H150.539C151.607 158.587 155.873 156.504 160.086 156.504C164.243 156.504 168.352 158.53 169.362 163.702Z" fill="#040606"/>
<path d="M184.826 155.92V152.347H179.603V181.196H184.826V165.519C184.826 160.504 187.816 156.556 193.306 156.556C199.603 156.556 201.04 160.29 201.04 165.733V181.196H206.212V165.676C206.212 157.41 202.483 151.92 193.681 151.92C190.056 151.92 186.962 152.827 184.826 155.92Z" fill="#040606"/>
</svg>
