<svg width="20" height="22" viewBox="0 0 20 22" fill="none" xmlns="http://www.w3.org/2000/svg">
<path d="M11.1252 5.27495C11.4921 4.81707 11.4185 4.14838 10.9606 3.78139C10.5027 3.41441 9.83399 3.48811 9.467 3.94599L11.1252 5.27495ZM1.94058 15.0357L2.74529 15.7295C2.75359 15.7199 2.76172 15.7101 2.76966 15.7002L1.94058 15.0357ZM1.69833 15.6279L0.638086 15.5587C0.637651 15.5654 0.63728 15.5721 0.636971 15.5787L1.69833 15.6279ZM1.5 19.9105L0.438638 19.8613C0.436194 19.9141 0.437688 19.9669 0.443107 20.0195L1.5 19.9105ZM2.61492 20.8837L2.64965 21.9457C2.72051 21.9433 2.79096 21.9339 2.85994 21.9176L2.61492 20.8837ZM6.86492 19.8765L7.10994 20.9103C7.11546 20.909 7.12097 20.9077 7.12646 20.9063L6.86492 19.8765ZM7.41033 19.5308L8.22995 20.2069C8.23307 20.2031 8.23616 20.1993 8.23923 20.1955L7.41033 19.5308ZM16.7959 9.52518C17.163 9.06739 17.0895 8.39868 16.6317 8.03157C16.1739 7.66447 15.5052 7.73798 15.1381 8.19577L16.7959 9.52518ZM9.47193 3.9459C9.10479 4.40367 9.17826 5.07238 9.63602 5.43952C10.0938 5.80665 10.7625 5.73319 11.1296 5.27542L9.47193 3.9459ZM12.5504 1.80566L13.3793 2.47042C13.3933 2.45301 13.4067 2.43516 13.4195 2.41691L12.5504 1.80566ZM14.8582 1.35233L15.5379 0.535705C15.5041 0.50754 15.4685 0.481506 15.4315 0.457752L14.8582 1.35233ZM18.0273 3.99016L18.7793 3.23955C18.7562 3.21645 18.7321 3.19442 18.707 3.17354L18.0273 3.99016ZM18.5046 5.15307L19.5671 5.15891V5.15891L18.5046 5.15307ZM18.0145 6.31066L17.2708 5.55184C17.2407 5.58135 17.2124 5.61264 17.186 5.64552L18.0145 6.31066ZM15.1389 8.19552C14.7716 8.65312 14.8447 9.32186 15.3023 9.68921C15.7599 10.0566 16.4286 9.9834 16.796 9.5258L15.1389 8.19552ZM11.3515 4.45289C11.2646 3.87257 10.7236 3.47262 10.1433 3.55958C9.563 3.64655 9.16305 4.18749 9.25001 4.76781L11.3515 4.45289ZM16.1105 9.91318C16.692 9.83417 17.0993 9.29876 17.0203 8.7173C16.9413 8.13584 16.4059 7.72852 15.8244 7.80753L16.1105 9.91318ZM9.467 3.94599L1.1115 14.3712L2.76966 15.7002L11.1252 5.27495L9.467 3.94599ZM1.13587 14.3419C0.842112 14.6827 0.667362 15.1098 0.638086 15.5587L2.75858 15.697C2.7578 15.709 2.75313 15.7204 2.74529 15.7295L1.13587 14.3419ZM0.636971 15.5787L0.438638 19.8613L2.56136 19.9596L2.7597 15.677L0.636971 15.5787ZM0.443107 20.0195C0.558814 21.1413 1.52249 21.9825 2.64965 21.9457L2.58018 19.8218C2.57565 19.8219 2.57342 19.8213 2.57197 19.8208C2.56995 19.82 2.56728 19.8186 2.56453 19.8162C2.56179 19.8138 2.56002 19.8114 2.55902 19.8095C2.5583 19.8081 2.55736 19.806 2.55689 19.8015L0.443107 20.0195ZM2.85994 21.9176L7.10994 20.9103L6.61989 18.8426L2.36989 19.8499L2.85994 21.9176ZM7.12646 20.9063C7.55926 20.7964 7.94579 20.5514 8.22995 20.2069L6.59072 18.8547C6.59398 18.8507 6.59841 18.8479 6.60337 18.8467L7.12646 20.9063ZM8.23923 20.1955L16.7959 9.52518L15.1381 8.19577L6.58143 18.8661L8.23923 20.1955ZM11.1296 5.27542L13.3793 2.47042L11.7216 1.1409L9.47193 3.9459L11.1296 5.27542ZM13.4195 2.41691C13.6159 2.13765 13.9975 2.0627 14.2849 2.24691L15.4315 0.457752C14.1858 -0.340479 12.5325 -0.0156927 11.6814 1.19442L13.4195 2.41691ZM14.1785 2.16895L17.3476 4.80679L18.707 3.17354L15.5379 0.535705L14.1785 2.16895ZM17.2753 4.74077C17.3829 4.84857 17.443 4.99491 17.4421 5.14723L19.5671 5.15891C19.571 4.43965 19.2874 3.74863 18.7793 3.23955L17.2753 4.74077ZM17.4421 5.14723C17.4413 5.29955 17.3796 5.44522 17.2708 5.55184L18.7582 7.06949C19.2719 6.56603 19.5631 5.87817 19.5671 5.15891L17.4421 5.14723ZM17.186 5.64552L15.1389 8.19552L16.796 9.5258L18.8431 6.9758L17.186 5.64552ZM9.25001 4.76781C9.74493 8.07048 12.8014 10.3628 16.1105 9.91318L15.8244 7.80753C13.6669 8.10067 11.6742 6.60614 11.3515 4.45289L9.25001 4.76781Z" fill="#FF8399"/>
</svg>
