<svg width="33" height="33" viewBox="0 0 33 33" fill="none" xmlns="http://www.w3.org/2000/svg">
<path d="M12.375 13.75C13.8938 13.75 15.125 12.5188 15.125 11C15.125 9.48122 13.8938 8.25 12.375 8.25C10.8562 8.25 9.625 9.48122 9.625 11C9.625 12.5188 10.8562 13.75 12.375 13.75Z" stroke="#292D32" stroke-width="1.5" stroke-linecap="round" stroke-linejoin="round"/>
<path d="M17.875 2.75H12.375C5.5 2.75 2.75 5.5 2.75 12.375V20.625C2.75 27.5 5.5 30.25 12.375 30.25H20.625C27.5 30.25 30.25 27.5 30.25 20.625V13.75" stroke="#292D32" stroke-width="1.5" stroke-linecap="round" stroke-linejoin="round"/>
<path d="M21.6562 6.875H29.2188" stroke="#292D32" stroke-width="1.5" stroke-linecap="round"/>
<path d="M25.4375 10.6562V3.09375" stroke="#292D32" stroke-width="1.5" stroke-linecap="round"/>
<path d="M3.67188 26.0558L10.4506 21.5045C11.5369 20.7758 13.1044 20.8583 14.0806 21.697L14.5344 22.0958C15.6069 23.017 17.3394 23.017 18.4119 22.0958L24.1319 17.187C25.2044 16.2658 26.9369 16.2658 28.0094 17.187L30.2506 19.112" stroke="#292D32" stroke-width="1.5" stroke-linecap="round" stroke-linejoin="round"/>
</svg>
