<svg width="45" height="45" viewBox="0 0 45 45" fill="none" xmlns="http://www.w3.org/2000/svg">
<rect width="45" height="45" rx="22.5" fill="#FFEBEB"/>
<path d="M31.5 16.4805C28.17 16.1505 24.82 15.9805 21.48 15.9805C19.5 15.9805 17.52 16.0805 15.54 16.2805L13.5 16.4805" stroke="#E53535" stroke-width="1.5" stroke-linecap="round" stroke-linejoin="round"/>
<path d="M19 15.47L19.22 14.16C19.38 13.21 19.5 12.5 21.19 12.5H23.81C25.5 12.5 25.63 13.25 25.78 14.17L26 15.47" stroke="#E53535" stroke-width="1.5" stroke-linecap="round" stroke-linejoin="round"/>
<path d="M29.3504 19.6406L28.7004 29.7106C28.5904 31.2806 28.5004 32.5006 25.7104 32.5006H19.2904C16.5004 32.5006 16.4104 31.2806 16.3004 29.7106L15.6504 19.6406" stroke="#E53535" stroke-width="1.5" stroke-linecap="round" stroke-linejoin="round"/>
<path d="M20.8301 27H24.1601" stroke="#E53535" stroke-width="1.5" stroke-linecap="round" stroke-linejoin="round"/>
<path d="M20 23H25" stroke="#E53535" stroke-width="1.5" stroke-linecap="round" stroke-linejoin="round"/>
</svg>
