<svg width="163" height="187" viewBox="0 0 163 187" fill="none" xmlns="http://www.w3.org/2000/svg">
<path d="M81.5219 24.2576L19.2041 2.29492V137.733L81.5219 117.601V24.2552" fill="#040606"/>
<path d="M80.0269 24.1897L144.733 2.22705V137.666L80.0269 117.533V24.1873" fill="white"/>
<path d="M3.04443 161.441L80.0315 135.819V24.1753L3.04443 49.7956V161.446" fill="white"/>
<path d="M115.108 163.13L126.018 181.054L131.78 164.405L115.115 163.13M29.2184 62.6564C28.8107 62.2559 29.75 65.933 31.0606 67.2557C33.3833 69.5954 35.1988 69.8964 36.1647 69.9377C38.303 70.0226 40.9412 69.4061 42.5091 68.7508C44.0261 68.1052 46.6813 66.7509 47.6861 64.7752C47.8997 64.3529 48.487 63.6418 48.123 61.8919C47.8463 60.5448 46.9847 60.0716 45.9386 60.1468C44.8925 60.2172 41.7203 61.0618 40.1791 61.5327L34.1042 63.2583C32.7304 63.5496 29.7014 63.1127 29.2184 62.6588M68.0518 106.618C67.445 106.4 54.8945 101.206 53.1155 100.356C51.6592 99.6573 48.089 98.1501 46.4095 97.4656C51.1398 90.182 54.1276 84.6846 54.5256 83.8473L60.3846 71.9279C60.4987 71.3187 60.6395 69.0639 60.5302 68.5275C60.421 67.9814 58.5837 69.0324 56.0911 69.8745C53.5961 70.7167 48.8511 73.7991 47.0162 74.185C45.1789 74.5661 39.3005 76.7917 36.2982 77.7893C33.2959 78.7868 27.5996 80.5197 25.2599 81.1508C22.9202 81.7818 20.8693 81.8304 19.5586 82.2284C18.248 82.624 19.7334 84.0609 20.0829 84.6118C20.4251 85.1603 21.6654 86.5074 23.107 86.8835C24.5512 87.2622 26.937 87.1117 28.0219 86.8617C29.1165 86.6117 30.9902 85.6919 31.2426 85.2914C31.4999 84.8836 31.1116 83.6288 31.5363 83.2478C31.9683 82.8716 37.6962 81.5367 39.8612 80.8838C42.0237 80.2188 50.3025 77.3718 51.4262 77.5174C51.0695 78.6946 44.4095 91.8664 42.2664 95.7958C40.1233 99.7252 27.6578 117.009 25.0074 120.057C22.993 122.372 18.1121 128.299 16.4229 129.634C16.85 129.751 19.8717 129.493 20.4227 129.154C23.8522 127.042 29.5679 119.94 31.4077 117.775C36.8759 111.37 41.6888 104.643 45.492 98.8709H45.4945C46.2371 99.1792 52.2393 104.062 53.8048 105.145C55.3703 106.227 61.552 109.669 62.8918 110.239C64.2291 110.817 69.377 113.188 69.6002 112.385C69.8163 111.584 68.6682 106.849 68.0688 106.618" fill="#040606"/>
<mask id="mask0_238_1081" style="mask-type:luminance" maskUnits="userSpaceOnUse" x="0" y="21" width="124" height="166">
<path d="M0.998535 21.7358H123.44V186.7H0.998535V21.7358Z" fill="white"/>
</mask>
<g mask="url(#mask0_238_1081)">
<path fill-rule="evenodd" clip-rule="evenodd" d="M39.0578 171.89C40.2617 172.623 41.3975 173.225 42.6669 173.824C45.2056 175.091 48.0793 176.426 50.817 177.426C54.4844 178.807 58.2269 179.941 62.0423 180.829C64.1126 181.295 66.3843 181.703 68.5906 182.03C68.7896 182.03 74.7359 182.766 75.9398 182.766H81.9541C84.2914 182.564 86.4952 182.431 88.8349 182.098C90.7062 181.831 92.7765 181.496 94.7812 181.03C96.252 180.698 97.7884 180.363 99.2592 179.897C100.662 179.496 102.264 178.962 103.8 178.428C104.805 178.096 105.873 177.628 106.941 177.227C107.912 176.78 108.892 176.358 109.883 175.96C111.084 175.426 112.487 174.693 113.824 174.026C114.892 173.492 116.096 172.824 117.232 172.157C118.105 171.691 120.105 170.155 121.173 170.155C122.377 170.155 123.178 171.222 123.178 172.157C123.178 174.091 120.574 174.691 119.37 175.56C118.101 176.433 116.564 177.094 115.229 177.827C112.555 179.227 109.817 180.428 107.21 181.431C103.803 182.698 100.063 183.906 96.7205 184.707C95.4511 184.972 94.1817 185.307 92.9124 185.508C92.2449 185.639 85.2962 186.71 83.3569 186.71H74.5345C72.1972 186.508 69.724 186.244 67.3867 185.909C65.3164 185.574 63.1102 185.173 61.0375 184.707C59.4356 184.372 57.6978 183.906 56.1542 183.44C53.4795 182.705 50.8729 181.766 48.3366 180.771C43.7275 179.038 38.9146 176.768 34.3735 173.766C33.5702 173.232 33.4974 172.698 33.4974 172.091C33.4974 171.091 34.2328 170.157 35.4342 170.157C36.5045 170.157 38.6428 171.691 39.0433 171.892M82.0099 23.9228V136.003C81.9371 136.374 81.7818 136.707 81.5415 137.003C81.408 137.202 81.141 137.469 80.942 137.537C79.2649 138.204 4.04228 163.422 3.03504 163.422C2.23411 163.422 1.4987 162.888 1.09823 162.021C1.09823 161.953 1.03027 161.888 1.03027 161.754V49.6086C1.16376 49.2761 1.23172 48.8077 1.4987 48.5407C2.03266 47.8077 2.96709 47.6669 3.569 47.4728C4.70488 47.0723 78.7989 22.2554 79.8692 22.2554C80.5367 22.2554 82.0075 22.7238 82.0075 23.9301L82.0099 23.9228ZM77.9251 134.336L5.11748 158.553V51.2784L77.9421 27.061V134.343" fill="#040606"/>
</g>
<mask id="mask1_238_1081" style="mask-type:luminance" maskUnits="userSpaceOnUse" x="77" y="0" width="71" height="140">
<path d="M77.4614 0.299805H147.051V139.789H77.4614V0.299805Z" fill="white"/>
</mask>
<g mask="url(#mask1_238_1081)">
<path fill-rule="evenodd" clip-rule="evenodd" d="M146.762 2.43076V137.396C146.697 138.93 145.626 139.597 144.624 139.597C143.755 139.597 137.474 137.462 136.406 137.122L111.15 129.316L105.538 127.515C103.88 127.035 102.232 126.523 100.594 125.981L79.015 119.176C78.748 119.108 78.0781 118.176 78.0781 117.974V23.7114C78.2116 23.3789 78.3451 22.9784 78.68 22.7115C79.214 22.112 102.131 14.5055 111.15 11.5032C113.557 10.6343 143.687 0.294922 144.624 0.294922C145.828 0.294922 146.762 1.16139 146.762 2.42833V2.43076ZM142.677 134.862L82.0804 116.047V25.6434L142.682 5.10297V134.869" fill="#040606"/>
</g>
<mask id="mask2_238_1081" style="mask-type:luminance" maskUnits="userSpaceOnUse" x="80" y="24" width="83" height="140">
<path d="M80.5679 24.8428H162.234V163.4H80.5679V24.8428Z" fill="white"/>
</mask>
<g mask="url(#mask2_238_1081)">
<path d="M162.14 163.131L81.187 137.365L81.5244 25.1973L162.142 50.8273V163.141" fill="#040606"/>
</g>
<path fill-rule="evenodd" clip-rule="evenodd" d="M116.559 57.2178L126.988 60.373L145.992 128.758L135.279 125.511L131.427 111.473L109.288 104.774L104.526 116.21L93.8101 112.963L116.559 57.2178ZM121.328 75.3214L113.382 94.5002L127.991 98.9224L121.328 75.3214Z" fill="white"/>
</svg>
