<svg width="154" height="35" viewBox="0 0 154 35" fill="none" xmlns="http://www.w3.org/2000/svg">
<path d="M15.5041 4.72141L4.00342 0.668213V25.6633L15.5041 21.9478V4.72096" fill="#040606"/>
<path d="M15.228 4.70884L27.1695 0.65564V25.6507L15.228 21.9353V4.70839" fill="white"/>
<path d="M1.021 30.0386L15.2289 25.3099V4.70618L1.021 9.43439V30.0394" fill="white"/>
<path d="M21.702 30.3503L23.7154 33.6582L24.7788 30.5855L21.7034 30.3503M5.85116 11.8079C5.77591 11.734 5.94926 12.4126 6.19113 12.6567C6.61979 13.0885 6.95483 13.1441 7.1331 13.1517C7.52771 13.1674 8.0146 13.0536 8.30395 12.9327C8.5839 12.8135 9.07392 12.5636 9.25936 12.199C9.29878 12.121 9.40717 11.9898 9.33999 11.6668C9.28892 11.4183 9.12991 11.3309 8.93686 11.3448C8.74381 11.3578 8.15838 11.5137 7.87395 11.6006L6.75282 11.919C6.4993 11.9728 5.9403 11.8921 5.85116 11.8084M13.0178 19.9211C12.9059 19.8807 10.5897 18.9222 10.2614 18.7654C9.9926 18.6364 9.33371 18.3583 9.02376 18.232C9.89675 16.8878 10.4481 15.8732 10.5216 15.7187L11.6029 13.519C11.6239 13.4066 11.6499 12.9904 11.6297 12.8914C11.6096 12.7907 11.2705 12.9846 10.8105 13.14C10.35 13.2955 9.47436 13.8643 9.13574 13.9355C8.79666 14.0059 7.71181 14.4166 7.15774 14.6007C6.60366 14.7848 5.5524 15.1046 5.12061 15.2211C4.68882 15.3375 4.31033 15.3465 4.06845 15.4199C3.82658 15.493 4.1007 15.7581 4.1652 15.8598C4.22836 15.961 4.45725 16.2096 4.72331 16.279C4.98982 16.3489 5.43012 16.3211 5.63034 16.275C5.83235 16.2289 6.17814 16.0591 6.22473 15.9852C6.2722 15.91 6.20054 15.6784 6.27892 15.6081C6.35865 15.5386 7.41574 15.2923 7.81528 15.1718C8.21437 15.0491 9.74222 14.5237 9.9496 14.5505C9.88376 14.7678 8.65467 17.1986 8.25916 17.9238C7.86365 18.649 5.56315 21.8386 5.07403 22.4012C4.70226 22.8285 3.8015 23.9223 3.48975 24.1686C3.56858 24.1901 4.12624 24.1427 4.22791 24.08C4.86082 23.6903 5.91566 22.3797 6.25518 21.9801C7.26434 20.7981 8.15256 19.5565 8.85444 18.4913H8.85489C8.99195 18.5482 10.0997 19.4494 10.3886 19.6492C10.6775 19.8489 11.8183 20.4841 12.0656 20.5893C12.3124 20.6959 13.2624 21.1336 13.3036 20.9853C13.3435 20.8375 13.1316 19.9636 13.021 19.9211" fill="#040606"/>
<mask id="mask0_238_1182" style="mask-type:luminance" maskUnits="userSpaceOnUse" x="0" y="4" width="24" height="31">
<path d="M0.643555 4.25598H23.2401V34.7H0.643555V4.25598Z" fill="white"/>
</mask>
<g mask="url(#mask0_238_1182)">
<path fill-rule="evenodd" clip-rule="evenodd" d="M7.66737 31.9668C7.88954 32.102 8.09916 32.2131 8.33342 32.3238C8.80195 32.5576 9.33228 32.8039 9.83753 32.9885C10.5143 33.2433 11.205 33.4525 11.9091 33.6164C12.2912 33.7024 12.7105 33.7777 13.1176 33.8382C13.1544 33.8382 14.2517 33.9739 14.4739 33.9739H15.5839C16.0152 33.9367 16.4219 33.9121 16.8537 33.8507C17.199 33.8014 17.5811 33.7396 17.9511 33.6536C18.2225 33.5923 18.5061 33.5304 18.7775 33.4444C19.0364 33.3705 19.332 33.272 19.6156 33.1735C19.801 33.1121 19.9981 33.0256 20.1952 32.9517C20.3743 32.8693 20.5553 32.7914 20.738 32.7179C20.9597 32.6194 21.2186 32.4841 21.4654 32.3609C21.6625 32.2624 21.8847 32.1392 22.0943 32.016C22.2556 31.93 22.6247 31.6465 22.8217 31.6465C23.0439 31.6465 23.1917 31.8436 23.1917 32.016C23.1917 32.373 22.7111 32.4837 22.4889 32.644C22.2547 32.8053 21.9711 32.9271 21.7248 33.0624C21.2312 33.3208 20.7259 33.5425 20.2449 33.7275C19.616 33.9613 18.9258 34.1844 18.309 34.3322C18.0747 34.381 17.8405 34.4428 17.6062 34.48C17.483 34.5042 16.2006 34.7017 15.8427 34.7017H14.2146C13.7832 34.6646 13.3268 34.6157 12.8955 34.5539C12.5134 34.4921 12.1062 34.4182 11.7237 34.3322C11.4281 34.2704 11.1074 34.1844 10.8225 34.0984C10.3289 33.9627 9.84783 33.7893 9.37976 33.6057C8.52916 33.2859 7.64095 32.8671 6.80289 32.313C6.65463 32.2145 6.6412 32.1159 6.6412 32.0039C6.6412 31.8194 6.77691 31.647 6.99863 31.647C7.19616 31.647 7.59078 31.93 7.66469 31.9672M15.5942 4.65953V25.3439C15.5807 25.4124 15.5521 25.4738 15.5077 25.5284C15.4831 25.5651 15.4338 25.6144 15.3971 25.627C15.0876 25.7501 1.20528 30.404 1.01939 30.404C0.871581 30.404 0.735862 30.3054 0.661956 30.1455C0.661956 30.133 0.649414 30.1209 0.649414 30.0963V9.39983C0.67405 9.33846 0.686591 9.25202 0.735862 9.20274C0.834404 9.06747 1.00685 9.04149 1.11793 9.00566C1.32756 8.93175 15.0016 4.35181 15.1991 4.35181C15.3223 4.35181 15.5937 4.43825 15.5937 4.66087L15.5942 4.65953ZM14.8403 25.0362L1.40371 29.5055V9.70799L14.8434 5.23868V25.0375" fill="#040606"/>
</g>
<mask id="mask1_238_1182" style="mask-type:luminance" maskUnits="userSpaceOnUse" x="14" y="0" width="14" height="27">
<path d="M14.7549 0.300049H27.5975V26.0427H14.7549V0.300049Z" fill="white"/>
</mask>
<g mask="url(#mask1_238_1182)">
<path fill-rule="evenodd" clip-rule="evenodd" d="M27.5442 0.693361V25.6011C27.5322 25.8842 27.3346 26.0074 27.1496 26.0074C26.9893 26.0074 25.8301 25.6132 25.633 25.5505L20.972 24.11L19.9364 23.7776C19.6305 23.689 19.3263 23.5944 19.024 23.4946L15.0415 22.2386C14.9923 22.2261 14.8687 22.0541 14.8687 22.0169V4.62069C14.8933 4.55933 14.9179 4.48542 14.9797 4.43615C15.0783 4.32552 19.3075 2.92175 20.972 2.36767C21.4163 2.20732 26.9767 0.299194 27.1496 0.299194C27.3718 0.299194 27.5442 0.459101 27.5442 0.692913V0.693361ZM26.7904 25.1335L15.6073 21.6612V4.97724L26.7913 1.18652V25.1348" fill="#040606"/>
</g>
<mask id="mask2_238_1182" style="mask-type:luminance" maskUnits="userSpaceOnUse" x="15" y="4" width="16" height="27">
<path d="M15.3281 4.82935H30.3996V30.4H15.3281V4.82935Z" fill="white"/>
</mask>
<g mask="url(#mask2_238_1182)">
<path d="M30.3822 30.3503L15.4424 25.5952L15.5046 4.89478L30.3826 9.62478V30.3521" fill="#040606"/>
</g>
<path fill-rule="evenodd" clip-rule="evenodd" d="M21.9703 10.8041L23.895 11.3864L27.4022 24.0069L25.4251 23.4076L24.7142 20.8168L20.6283 19.5806L19.7495 21.6911L17.772 21.0918L21.9703 10.8041ZM22.8505 14.1451L21.384 17.6845L24.08 18.5006L22.8505 14.1451Z" fill="white"/>
<path d="M66.2472 22.6655H57.9073V7.72388H55.3467V25.1852H66.2472V22.6655Z" fill="#040606"/>
<path d="M80.7209 17.852C80.4426 13.6112 77.0959 11.4915 73.6992 11.4915C70.0742 11.4915 66.5762 13.8106 66.5762 18.4501C66.5762 23.0896 70.1255 25.4351 73.6491 25.4351C76.4625 25.4351 79.2758 23.9627 80.3157 21.0202H77.755C76.9446 22.5407 75.3725 23.2649 73.6736 23.2649C71.6206 23.2649 69.06 21.6687 69.06 19.0242H80.6709C80.7209 18.7996 80.7465 18.5498 80.7465 18.2759C80.7465 18.1258 80.7465 18.0009 80.7209 17.852ZM78.1102 17.0041H69.1613C69.669 14.6093 71.6963 13.6365 73.6992 13.6365C75.6765 13.6365 77.6281 14.5841 78.1102 17.0041Z" fill="#040606"/>
<path d="M97.223 25.1852V11.6908H94.7392L94.7637 13.4863C93.5468 11.8649 91.4938 11.4662 89.7961 11.4662C85.1568 11.4662 82.4692 14.7341 82.4692 18.3756C82.4692 22.0926 85.0555 25.4098 89.8461 25.4098C91.5451 25.3846 93.7506 24.8358 94.7392 23.3645V25.1852H97.223ZM94.7392 18.426C94.7392 21.6687 92.0772 23.2396 89.7961 23.2396C86.7533 23.2396 84.9542 20.9193 84.9542 18.3756C84.9542 15.7069 86.7789 13.6112 89.7961 13.6112C92.1273 13.6112 94.7392 15.2073 94.7392 18.426Z" fill="#040606"/>
<path d="M102.216 13.3614V11.716H99.7573V25.1853H102.216V17.8771C102.216 15.4067 104.143 13.586 106.45 13.586C106.855 13.586 107.286 13.6364 107.716 13.7613V11.6163C107.159 11.4914 106.627 11.4158 106.094 11.4158C104.574 11.4158 103.204 12.015 102.216 13.3614Z" fill="#040606"/>
<path d="M111.873 13.3615V11.6908H109.39V25.1853H111.873V17.852C111.873 15.5076 113.293 13.6617 115.904 13.6617C118.895 13.6617 119.58 15.4068 119.58 17.9517V25.1853H122.039V17.9265C122.039 14.0604 120.265 11.4915 116.082 11.4915C114.357 11.4915 112.888 11.9154 111.873 13.3615Z" fill="#040606"/>
<path d="M138.262 17.852C137.984 13.6112 134.637 11.4915 131.24 11.4915C127.615 11.4915 124.117 13.8106 124.117 18.4501C124.117 23.0896 127.666 25.4351 131.19 25.4351C134.003 25.4351 136.817 23.9627 137.857 21.0202H135.296C134.486 22.5407 132.914 23.2649 131.215 23.2649C129.162 23.2649 126.601 21.6687 126.601 19.0242H138.212C138.262 18.7996 138.288 18.5498 138.288 18.2759C138.288 18.1258 138.288 18.0009 138.262 17.852ZM135.651 17.0041H126.702C127.21 14.6093 129.237 13.6365 131.24 13.6365C133.217 13.6365 135.169 14.5841 135.651 17.0041Z" fill="#040606"/>
<path d="M143.001 13.3615V11.6908H140.518V25.1853H143.001V17.852C143.001 15.5076 144.421 13.6617 147.032 13.6617C150.023 13.6617 150.708 15.4068 150.708 17.9517V25.1853H153.167V17.9265C153.167 14.0604 151.393 11.4915 147.21 11.4915C145.485 11.4915 144.016 11.9154 143.001 13.3615Z" fill="#040606"/>
</svg>
