<svg width="225" height="61" viewBox="0 0 225 61" fill="none" xmlns="http://www.w3.org/2000/svg">
<path d="M102.413 37.3613H90.6554V16.3071H87.0454V40.9118H102.413V37.3613Z" fill="#040606"/>
<path d="M122.818 30.5783C122.425 24.6027 117.707 21.6157 112.918 21.6157C107.808 21.6157 102.876 24.8836 102.876 31.4211C102.876 37.9585 107.88 41.2636 112.848 41.2636C116.814 41.2636 120.78 39.1888 122.246 35.0426H118.636C117.494 37.1852 115.278 38.2056 112.882 38.2056C109.988 38.2056 106.378 35.9565 106.378 32.23H122.747C122.818 31.9135 122.854 31.5616 122.854 31.1757C122.854 30.9642 122.854 30.7882 122.818 30.5783ZM119.137 29.3835H106.521C107.237 26.009 110.095 24.6382 112.918 24.6382C115.706 24.6382 118.457 25.9735 119.137 29.3835Z" fill="#040606"/>
<path d="M146.082 40.9115V21.8965H142.581L142.615 24.4266C140.9 22.142 138.006 21.5801 135.612 21.5801C129.072 21.5801 125.283 26.1849 125.283 31.316C125.283 36.5537 128.929 41.2279 135.683 41.2279C138.078 41.1924 141.187 40.419 142.581 38.3459V40.9115H146.082ZM142.581 31.3871C142.581 35.9563 138.828 38.1699 135.612 38.1699C131.322 38.1699 128.786 34.9004 128.786 31.316C128.786 27.5557 131.358 24.6026 135.612 24.6026C138.899 24.6026 142.581 26.8517 142.581 31.3871Z" fill="#040606"/>
<path d="M153.121 24.2508V21.9323H149.656V40.9117H153.121V30.6139C153.121 27.1329 155.838 24.5673 159.09 24.5673C159.662 24.5673 160.269 24.6383 160.876 24.8143V21.7918C160.09 21.6158 159.34 21.5093 158.59 21.5093C156.446 21.5093 154.515 22.3537 153.121 24.2508Z" fill="#040606"/>
<path d="M166.737 24.2507V21.8967H163.235V40.9116H166.737V30.5783C166.737 27.2748 168.738 24.6737 172.419 24.6737C176.636 24.6737 177.601 27.1328 177.601 30.7187V40.9116H181.069V30.6832C181.069 25.2356 178.567 21.6157 172.67 21.6157C170.239 21.6157 168.167 22.2131 166.737 24.2507Z" fill="#040606"/>
<path d="M203.939 30.5783C203.546 24.6027 198.828 21.6157 194.04 21.6157C188.929 21.6157 183.998 24.8836 183.998 31.4211C183.998 37.9585 189.001 41.2636 193.969 41.2636C197.935 41.2636 201.901 39.1888 203.367 35.0426H199.757C198.615 37.1852 196.399 38.2056 194.003 38.2056C191.109 38.2056 187.499 35.9565 187.499 32.23H203.868C203.939 31.9135 203.975 31.5616 203.975 31.1757C203.975 30.9642 203.975 30.7882 203.939 30.5783ZM200.258 29.3835H187.642C188.358 26.009 191.216 24.6382 194.04 24.6382C196.827 24.6382 199.579 25.9735 200.258 29.3835Z" fill="#040606"/>
<path d="M210.621 24.2507V21.8967H207.12V40.9116H210.621V30.5783C210.621 27.2748 212.622 24.6737 216.303 24.6737C220.52 24.6737 221.486 27.1328 221.486 30.7187V40.9116H224.953V30.6832C224.953 25.2356 222.451 21.6157 216.554 21.6157C214.123 21.6157 212.051 22.2131 210.621 24.2507Z" fill="#040606"/>
<path d="M26.5991 7.78324L6.01367 0.647949V44.6496L26.5991 38.1088V7.78246" fill="#040606"/>
<path d="M26.105 7.76127L47.4793 0.625977V44.6276L26.105 38.0869V7.76048" fill="white"/>
<path d="M0.675781 52.3522L26.1069 44.0279V7.75684L0.675781 16.0804V52.3538" fill="white"/>
<path d="M37.6934 52.901L41.2972 58.7242L43.2006 53.315L37.6958 52.901M9.32149 20.2587C9.1868 20.1286 9.49707 21.3232 9.93001 21.753C10.6973 22.5131 11.297 22.6109 11.6161 22.6243C12.3224 22.6519 13.1939 22.4516 13.7118 22.2387C14.2129 22.0289 15.09 21.589 15.4219 20.9471C15.4925 20.8099 15.6865 20.5789 15.5662 20.0103C15.4748 19.5727 15.1902 19.419 14.8447 19.4434C14.4991 19.4663 13.4512 19.7407 12.9421 19.8936L10.9354 20.4543C10.4816 20.5489 9.48104 20.407 9.32149 20.2595M22.1493 34.5411C21.9489 34.4702 17.8031 32.7828 17.2154 32.5068C16.7344 32.2797 15.555 31.79 15.0002 31.5676C16.5628 29.2013 17.5497 27.4153 17.6812 27.1433L19.6166 23.2709C19.6543 23.0729 19.7008 22.3404 19.6647 22.1662C19.6286 21.9887 19.0217 22.3302 18.1983 22.6038C17.3742 22.8774 15.8068 23.8788 15.2006 24.0042C14.5937 24.128 12.6519 24.8511 11.6602 25.1751C10.6684 25.4992 8.78673 26.0622 8.01386 26.2672C7.24098 26.4722 6.56351 26.488 6.13057 26.6173C5.69763 26.7459 6.1883 27.2127 6.30375 27.3917C6.41679 27.5699 6.82648 28.0075 7.30271 28.1297C7.77975 28.2527 8.56786 28.2038 8.92623 28.1226C9.28782 28.0414 9.90676 27.7425 9.99014 27.6124C10.0751 27.48 9.94685 27.0723 10.0872 26.9485C10.2299 26.8263 12.122 26.3926 12.8371 26.1805C13.5515 25.9644 16.2862 25.0395 16.6574 25.0868C16.5395 25.4693 14.3396 29.7485 13.6316 31.0251C12.9237 32.3018 8.80597 37.9168 7.93048 38.9072C7.26503 39.6594 5.65274 41.585 5.09473 42.0187C5.23583 42.0565 6.234 41.9729 6.41599 41.8625C7.54885 41.1765 9.43694 38.8693 10.0447 38.166C11.851 36.0851 13.4408 33.8993 14.6971 32.0242H14.6979C14.9433 32.1243 16.926 33.7108 17.4431 34.0625C17.9602 34.4142 20.0023 35.5323 20.4448 35.7176C20.8866 35.9053 22.5871 36.6757 22.6608 36.4147C22.7322 36.1545 22.3529 34.6161 22.1549 34.5411" fill="#040606"/>
<mask id="mask0_239_1233" style="mask-type:luminance" maskUnits="userSpaceOnUse" x="0" y="6" width="41" height="55">
<path d="M0 6.96436H40.4461V60.5583H0V6.96436Z" fill="white"/>
</mask>
<g mask="url(#mask0_239_1233)">
<path fill-rule="evenodd" clip-rule="evenodd" d="M12.5719 55.7467C12.9696 55.9849 13.3448 56.1804 13.7641 56.3752C14.6027 56.7868 15.552 57.2205 16.4563 57.5453C17.6677 57.994 18.904 58.3622 20.1644 58.6508C20.8482 58.8022 21.5987 58.9347 22.3274 59.0412C22.3932 59.0412 24.3574 59.2801 24.7551 59.2801H26.7418C27.5139 59.2146 28.2419 59.1713 29.0147 59.0632C29.6329 58.9765 30.3168 58.8677 30.979 58.7163C31.4649 58.6083 31.9724 58.4995 32.4582 58.3481C32.9216 58.2179 33.4508 58.0445 33.9583 57.871C34.2902 57.763 34.6429 57.6108 34.9957 57.4807C35.3164 57.3356 35.6403 57.1984 35.9674 57.0691C36.3643 56.8956 36.8277 56.6575 37.2694 56.4406C37.6222 56.2672 38.0199 56.0503 38.3951 55.8335C38.6837 55.6821 39.3443 55.1829 39.6971 55.1829C40.0948 55.1829 40.3593 55.5299 40.3593 55.8335C40.3593 56.4619 39.4991 56.6567 39.1014 56.939C38.6821 57.2228 38.1746 57.4373 37.7336 57.6754C36.8501 58.1304 35.9458 58.5207 35.0847 58.8464C33.9591 59.258 32.7236 59.6507 31.6196 59.9109C31.2003 59.9968 30.781 60.1057 30.3617 60.1711C30.1412 60.2137 27.8458 60.5614 27.2052 60.5614H24.2909C23.5188 60.496 22.7019 60.41 21.9298 60.3012C21.2459 60.1924 20.5171 60.0623 19.8324 59.9109C19.3033 59.8021 18.7292 59.6507 18.2193 59.4993C17.3358 59.2604 16.4748 58.9552 15.6369 58.6319C14.1144 58.0689 12.5246 57.3317 11.0245 56.3563C10.7592 56.1828 10.7351 56.0093 10.7351 55.8122C10.7351 55.4873 10.978 55.1837 11.3749 55.1837C11.7285 55.1837 12.4348 55.6821 12.5671 55.7475M26.7603 7.67477V44.0877C26.7362 44.2084 26.6849 44.3164 26.6055 44.4126C26.5614 44.4772 26.4732 44.564 26.4075 44.5861C25.8535 44.8029 1.00521 52.9956 0.67249 52.9956C0.407916 52.9956 0.16499 52.8221 0.0327026 52.5406C0.0327026 52.5185 0.0102539 52.4973 0.0102539 52.4539V16.0196C0.0543496 15.9116 0.0767981 15.7594 0.164989 15.6727C0.341372 15.4346 0.650041 15.3888 0.848872 15.3258C1.22409 15.1956 25.6996 7.13306 26.0531 7.13306C26.2736 7.13306 26.7595 7.28524 26.7595 7.67713L26.7603 7.67477ZM25.4109 43.546L1.36038 51.4138V16.5621L25.4165 8.69432V43.5484" fill="#040606"/>
</g>
<mask id="mask1_239_1233" style="mask-type:luminance" maskUnits="userSpaceOnUse" x="25" y="0" width="24" height="46">
<path d="M25.2578 0H48.2453V45.3177H25.2578V0Z" fill="white"/>
</mask>
<g mask="url(#mask1_239_1233)">
<path fill-rule="evenodd" clip-rule="evenodd" d="M48.1498 0.692186V44.5401C48.1282 45.0384 47.7746 45.2553 47.4435 45.2553C47.1565 45.2553 45.0816 44.5614 44.7288 44.451L36.3859 41.9151L34.5323 41.33C33.9847 41.1739 33.4403 41.0075 32.8992 40.8317L25.7709 38.6207C25.6827 38.5986 25.4614 38.2958 25.4614 38.2303V7.60591C25.5055 7.49788 25.5496 7.36778 25.6603 7.28104C25.8366 7.08627 33.4067 4.61506 36.3859 3.63966C37.1812 3.35738 47.134 -0.00170898 47.4435 -0.00170898C47.8411 -0.00170898 48.1498 0.279792 48.1498 0.691398V0.692186ZM46.8005 43.7169L26.7835 37.6043V8.23357L46.8021 1.56034V43.7192" fill="#040606"/>
</g>
<mask id="mask2_239_1233" style="mask-type:luminance" maskUnits="userSpaceOnUse" x="26" y="7" width="28" height="46">
<path d="M26.2842 7.97363H53.2611V52.9885H26.2842V7.97363Z" fill="white"/>
</mask>
<g mask="url(#mask2_239_1233)">
<path d="M53.2299 52.9009L26.4888 44.53L26.6002 8.08862L53.2308 16.4154V52.904" fill="#040606"/>
</g>
<path fill-rule="evenodd" clip-rule="evenodd" d="M38.1729 18.4917L41.618 19.5168L47.8956 41.734L44.3567 40.679L43.0843 36.1182L35.7709 33.9419L34.1979 37.6574L30.6582 36.6024L38.1729 18.4917ZM39.7483 24.3733L37.1234 30.6041L41.9491 32.0408L39.7483 24.3733Z" fill="white"/>
</svg>
