<svg width="39" height="39" viewBox="0 0 39 39" fill="none" xmlns="http://www.w3.org/2000/svg">
<path d="M19.5327 4.72888C14.154 4.72888 9.7827 9.10013 9.7827 14.4789V19.1751C9.7827 20.1664 9.3602 21.6776 8.85645 22.5226L6.9877 25.6264C5.83395 27.5439 6.6302 29.6726 8.7427 30.3876C15.7465 32.7276 23.3027 32.7276 30.3065 30.3876C32.2727 29.7376 33.134 27.4139 32.0615 25.6264L30.1927 22.5226C29.7052 21.6776 29.2827 20.1664 29.2827 19.1751V14.4789C29.2827 9.11638 24.8952 4.72888 19.5327 4.72888Z" stroke="#292D32" stroke-width="2.59615" stroke-miterlimit="10" stroke-linecap="round"/>
<path d="M22.5389 5.1999C22.0351 5.05365 21.5151 4.9399 20.9789 4.8749C19.4189 4.6799 17.9239 4.79365 16.5264 5.1999C16.9976 3.9974 18.1676 3.1524 19.5326 3.1524C20.8976 3.1524 22.0676 3.9974 22.5389 5.1999Z" stroke="#292D32" stroke-width="2.59615" stroke-miterlimit="10" stroke-linecap="round" stroke-linejoin="round"/>
<path d="M24.4072 30.9726C24.4072 33.6538 22.2135 35.8476 19.5322 35.8476C18.1997 35.8476 16.9647 35.2951 16.0872 34.4176C15.2097 33.5401 14.6572 32.3051 14.6572 30.9726" stroke="#292D32" stroke-width="2.59615" stroke-miterlimit="10"/>
</svg>
