<svg width="32" height="32" viewBox="0 0 32 32" fill="none" xmlns="http://www.w3.org/2000/svg">
<g clip-path="url(#clip0_42_4650)">
<rect x="0.370117" y="0.730835" width="30.9498" height="30.9498" rx="15.4749" fill="white"/>
<path fill-rule="evenodd" clip-rule="evenodd" d="M0.370117 0.730835H8.62339V8.98411H0.370117V0.730835ZM12.75 0.730835H21.0033V8.98411H12.75V0.730835ZM0.370117 13.1108H8.62339V21.364H0.370117V13.1108ZM12.75 13.1108H21.0033V21.364H12.75V13.1108ZM21.0033 0.730835H43.6998V4.85747H21.0033V0.730835ZM21.0033 8.98411H43.6998V13.1108H21.0033V8.98411Z" fill="#1A47B8"/>
<path fill-rule="evenodd" clip-rule="evenodd" d="M0.370117 17.2374H43.6998V21.364H0.370117V17.2374ZM8.62339 17.2374H12.75V21.364H8.62339V17.2374ZM0.370117 25.4906H43.6998V29.6173H0.370117V25.4906Z" fill="#1A47B8"/>
</g>
<defs>
<clipPath id="clip0_42_4650">
<rect x="0.370117" y="0.730835" width="30.9498" height="30.9498" rx="15.4749" fill="white"/>
</clipPath>
</defs>
</svg>
