<svg width="60" height="60" viewBox="0 0 60 60" fill="none" xmlns="http://www.w3.org/2000/svg">
<g clip-path="url(#clip0_171_5142)">
<rect width="60" height="60" rx="30" fill="#1A47B8"/>
<path fill-rule="evenodd" clip-rule="evenodd" d="M-3.06411 0H-12V10L63.0156 60L72 60V50L-3.06411 0Z" fill="white"/>
<path d="M-9.01961 0L72 54.1417V60H69.0895L-12 5.80224V0H-9.01961Z" fill="#F93939"/>
<path fill-rule="evenodd" clip-rule="evenodd" d="M64 0H72V10C72 10 20.0392 43.3122 -4 60H-12V50L64 0Z" fill="white"/>
<path d="M72 0H69.287L-12 54.1884V60H-9.01961L72 5.84605V0Z" fill="#F93939"/>
<path fill-rule="evenodd" clip-rule="evenodd" d="M18.5483 0H41.5216V18.5073H72V41.4805H41.5216V60H18.5483V41.4805H-12V18.5073H18.5483V0Z" fill="white"/>
<path fill-rule="evenodd" clip-rule="evenodd" d="M23.3684 0H36.6316V23.0769H72V36.9231H36.6316V60H23.3684V36.9231H-12V23.0769H23.3684V0Z" fill="#F93939"/>
</g>
<defs>
<clipPath id="clip0_171_5142">
<rect width="60" height="60" rx="30" fill="white"/>
</clipPath>
</defs>
</svg>
